<svg width="534" height="148" viewBox="0 0 534 148" fill="none" xmlns="http://www.w3.org/2000/svg">
<path d="M617.529 451.942C644.899 421.444 670.263 391.366 693.436 362.64C699.498 355.039 699.544 342.961 693.436 335.36C670.263 306.634 644.899 276.509 617.529 246.058C614.079 242.188 612.027 237.058 611.934 231.788C611.048 190.285 609.742 149.388 607.924 109.797C607.458 99.3512 598.645 90.5376 588.201 90.0713C548.615 88.2526 507.724 86.9002 466.227 86.0609C460.958 85.9676 455.829 83.9158 451.959 80.4649C421.466 53.0915 391.392 27.7232 362.624 4.5467C355.023 -1.51557 342.947 -1.51557 335.347 4.5467C306.626 27.7232 276.505 53.0915 246.058 80.4649C242.188 83.9158 237.059 85.9676 231.79 86.0609C190.293 86.9469 149.402 88.2526 109.816 90.0713C99.3721 90.5376 90.6064 99.3512 90.0935 109.797C88.275 149.388 86.9229 190.285 86.0836 231.788C85.9904 237.058 83.9388 242.188 80.4885 246.058C53.1189 276.556 27.7542 306.634 4.58102 335.36C-1.52701 342.961 -1.52701 355.039 4.58102 362.64C27.7542 391.366 53.1189 421.491 80.4885 451.942C83.9388 455.812 85.9904 460.942 86.0836 466.212C86.9695 507.715 88.275 548.612 90.0935 588.203C90.5597 598.649 99.3255 607.462 109.816 607.929C149.402 609.747 190.293 611.1 231.79 611.939C237.059 612.032 242.188 614.084 246.058 617.535C276.552 644.909 306.626 670.277 335.347 693.453C342.947 699.516 355.023 699.516 362.624 693.453C391.345 670.277 421.466 644.909 451.959 617.535C455.829 614.084 460.958 612.032 466.227 611.939C507.724 611.053 548.615 609.747 588.201 607.929C598.645 607.462 607.458 598.695 607.924 588.203C609.742 548.612 611.095 507.715 611.934 466.212C612.027 460.942 614.079 455.812 617.529 451.942ZM597.759 460.382C554.63 507.388 507.398 554.627 460.399 597.763C456.529 601.307 451.4 603.359 446.084 603.452C381.834 604.618 316.23 604.618 251.98 603.452C246.664 603.359 241.535 601.307 237.665 597.763C190.666 554.627 143.434 507.388 100.305 460.382C96.761 456.512 94.7095 451.382 94.6162 446.066C93.4506 381.806 93.4506 316.194 94.6162 251.934C94.7095 246.618 96.761 241.488 100.305 237.618C143.434 190.612 190.666 143.373 237.665 100.237C241.535 96.6931 246.711 94.6413 251.98 94.548C316.23 93.3822 381.834 93.3822 446.084 94.548C451.4 94.6413 456.529 96.6931 460.399 100.237C507.398 143.373 554.63 190.612 597.759 237.618C601.303 241.488 603.355 246.618 603.448 251.934C604.614 316.194 604.614 381.806 603.448 446.066C603.355 451.382 601.303 456.512 597.759 460.382Z" fill="white"/>
</svg>
